PathFileType	4	(X/Y/Z)	/Users/niels/Desktop/University/Third Semester/Perception and Action/Exam/Gymnastics Motion Tracking/Code for Gym Tracking/Analyzed Data/Webcam_Backflip/id2_5_baseline_Sports2D/id2_5_baseline_Sports2D_px_person00.trc
DataRate	CameraRate	NumFrames	NumMarkers	Units	OrigDataRate	OrigDataStartFrame	OrigNumFrames
29.875	29.875	7	22	m	29.875	180	240
Frame#	Time	Hip			RHip			RKnee			RAnkle			RBigToe			RSmallToe			RHeel			LHip			LKnee			LAnkle			LBigToe			LSmallToe			LHeel			Neck			Head			Nose			RShoulder			RElbow			RWrist			LShoulder			LElbow			LWrist		
		X1	Y1	Z1	X2	Y2	Z2	X3	Y3	Z3	X4	Y4	Z4	X5	Y5	Z5	X6	Y6	Z6	X7	Y7	Z7	X8	Y8	Z8	X9	Y9	Z9	X10	Y10	Z10	X11	Y11	Z11	X12	Y12	Z12	X13	Y13	Z13	X14	Y14	Z14	X15	Y15	Z15	X16	Y16	Z16	X17	Y17	Z17	X18	Y18	Z18	X19	Y19	Z19	X20	Y20	Z20	X21	Y21	Z21	X22	Y22	Z22
180	6.02510460251046	0.9409447246475374	-0.5503716487632635	0.0	0.9424848170431355	-0.5501398834351485	0.0	0.9323755080758621	-0.6574235538554676	0.0	0.9120519546273297	-0.7717584615798222	0.0	0.9530372344173014	-0.7934075006662635	0.0	0.9396153501514889	-0.7967222810753236	0.0	0.9017609436663683	-0.7886872762278149	0.0	0.9422571144289479	-0.5489327693397191	0.0	0.9363638610309312	-0.6566695386361264	0.0	0.9187410520916746	-0.7602255619836079	0.0	0.9605124881334643	-0.7849022562466799	0.0	0.9580314855797692	-0.7808791354754836	0.0	0.908411174059898	-0.7750915493294267	0.0	0.9388781029365683	-0.3890555637235374	0.0	0.9472517528704003	-0.3169946411271046	0.0	0.970062216102313	-0.3535674947173803	0.0	0.9333622428011082	-0.4122659353540982	0.0	0.9349005227138233	-0.4917036178683552	0.0	0.9712794338503762	-0.5513327860528563	0.0	0.9326642601264734	-0.4105278721151039	0.0	0.9330069837177284	-0.48370907875509644	0.0	0.963628713787887	-0.5433352624387712	0.0
181	6.05857740585774	0.9420859455516514	-0.5515588755597912	0.0	0.9430576356828709	-0.5516558323033056	0.0	0.9321746715460789	-0.6592997787378287	0.0	0.9117760894433616	-0.7726564312372195	0.0	0.9518897044228574	-0.7947969291323903	0.0	0.9371145709975008	-0.7983465691695821	0.0	0.9020716336318236	-0.7901195207753131	0.0	0.944309022131454	-0.5508577214352421	0.0	0.93707631654742	-0.6590218033217105	0.0	0.9189538233816642	-0.761548693528937	0.0	0.9600696807872602	-0.7863071658410937	0.0	0.9578980954251308	-0.7821366351348576	0.0	0.908960173248237	-0.7765038932919958	0.0	0.9399627765234518	-0.3896320638641983	0.0	0.9477882625465808	-0.31857028266467335	0.0	0.9706652366307759	-0.35359321197334037	0.0	0.9341499271672833	-0.413782838106527	0.0	0.9321953495124575	-0.49365939100180867	0.0	0.9574460970781493	-0.5621793465102041	0.0	0.9355891392009181	-0.4119632057034853	0.0	0.934603198562118	-0.4848828028549823	0.0	0.9587056159309347	-0.551436498675129	0.0
182	6.092050209205021	0.9437886928534523	-0.5530733428500095	0.0	0.9439491687992195	-0.5532047990902749	0.0	0.9319112361606098	-0.6617955226314183	0.0	0.9113356493518546	-0.7747791047548245	0.0	0.9508261854991248	-0.7973129274452097	0.0	0.9353315579102147	-0.8009729078538153	0.0	0.902230693987967	-0.7927461746662179	0.0	0.94712022717532	-0.5529327567568477	0.0	0.9374320389636853	-0.6620349393015706	0.0	0.9188281728025187	-0.7641036427675518	0.0	0.9596469314268291	-0.7889488518022468	0.0	0.9574720951660776	-0.7846802892822773	0.0	0.908869670140331	-0.7793284316316736	0.0	0.9412658491767332	-0.3916195784026213	0.0	0.9491281721326389	-0.32118580375082584	0.0	0.97162211529603	-0.3549011611715425	0.0	0.9348796278759369	-0.4158133250950063	0.0	0.9277057123705478	-0.4946662439546904	0.0	0.94377105977198	-0.5687016257730108	0.0	0.9385199789246007	-0.4141141143273152	0.0	0.9348608771098369	-0.4857863153303919	0.0	0.9537030296360799	-0.5558944209015979	0.0
183	6.125523012552301	0.9456270064831829	-0.555052927603466	0.0	0.9448037541790585	-0.5549500352558924	0.0	0.9315672815534504	-0.6646374101732241	0.0	0.9108071282184512	-0.7779092200808488	0.0	0.9498333431054561	-0.8006580716587307	0.0	0.9343303826512634	-0.8042904099674505	0.0	0.902282213352847	-0.7963030278180738	0.0	0.9500506344017104	-0.5552172323221968	0.0	0.9374185887334914	-0.6653834845761293	0.0	0.9183864488983073	-0.767608592796045	0.0	0.9591296816894789	-0.7923867353738802	0.0	0.9567165081231641	-0.7881582363979192	0.0	0.9082272991590087	-0.7832576407914246	0.0	0.9427478281728263	-0.3947619722147049	0.0	0.9511599606208287	-0.3246420530920422	0.0	0.9729332815852405	-0.3574094209870521	0.0	0.9355664157032031	-0.4182991896498545	0.0	0.9219110681492656	-0.49520731522604494	0.0	0.9314266506502754	-0.5723246123579108	0.0	0.9411956458014431	-0.41684752644775763	0.0	0.9335272942757238	-0.48670368665132024	0.0	0.9485157387023434	-0.5579854375132757	0.0
184	6.158995815899581	0.9471046394077075	-0.557605537803628	0.0	0.9452693934856489	-0.5571642682106884	0.0	0.9311293570964184	-0.6677109297987626	0.0	0.9103252530437518	-0.7817693124397582	0.0	0.9489240814470425	-0.8044727761044597	0.0	0.9340207862210931	-0.8080187982267063	0.0	0.9023117075835816	-0.8004661987564995	0.0	0.9524429155602705	-0.5578580337554236	0.0	0.937029451970527	-0.6688767490563989	0.0	0.9176847600011445	-0.7717785331554144	0.0	0.9584247137768551	-0.7962150438542357	0.0	0.955657368934492	-0.792181799041815	0.0	0.9071509108590841	-0.7878734689959885	0.0	0.9442728790056208	-0.3986978859214785	0.0	0.9536616119452233	-0.3286958662036224	0.0	0.974507569233706	-0.360957900175589	0.0	0.9362559986414234	-0.4211916213995206	0.0	0.91588576086176	-0.4957722592054805	0.0	0.9210465639900948	-0.5744404257052002	0.0	0.9433317744775946	-0.420051786141188	0.0	0.930848012534456	-0.4879464114199336	0.0	0.9426616456038087	-0.5589885302600667	0.0
185	6.192468619246862	0.9479259900571606	-0.5606469794921806	0.0	0.9452400489780963	-0.559956250746696	0.0	0.9306015039079876	-0.6709547100108533	0.0	0.9099978116658682	-0.7860174192702318	0.0	0.9481558216535908	-0.808400193490191	0.0	0.9342239693005654	-0.8118842776125549	0.0	0.9024022734642401	-0.8048252222821771	0.0	0.9539036830376301	-0.5608696278786716	0.0	0.9362690335803557	-0.6723564429977771	0.0	0.9168220183861844	-0.7762568750206282	0.0	0.9575405600800269	-0.8000990388376037	0.0	0.9543926258611611	-0.7963539966138664	0.0	0.9058122494661346	-0.7926857216742547	0.0	0.9456877852061432	-0.4030201947671014	0.0	0.9563403026643802	-0.33303008383747973	0.0	0.976210899623146	-0.3652094039867653	0.0	0.9369533327287792	-0.424405758362623	0.0	0.9108015016424609	-0.49681959455353325	0.0	0.9128888565804646	-0.5761147482889823	0.0	0.9447434715390337	-0.4235705470536386	0.0	0.9274040138592139	-0.4898525252793356	0.0	0.9355862253039468	-0.5600017228596235	0.0
186	6.225941422594142	0.9481118604942799	-0.5639382736520971	0.0	0.9448576127458935	-0.5631782245091876	0.0	0.9299909466505182	-0.6742516489834907	0.0	0.9098474816641018	-0.790229584459423	0.0	0.9475645523611089	-0.8121192507637821	0.0	0.9346494537548389	-0.8155896171880558	0.0	0.90257868747809	-0.8089126605050382	0.0	0.9544368663259395	-0.5640949620144856	0.0	0.9352477948606703	-0.6756771106745616	0.0	0.9160047265208946	-0.7806008902853658	0.0	0.9566412699267997	-0.8037209517534998	0.0	0.9531325791404142	-0.800257508203525	0.0	0.9045664359404448	-0.797198677800247	0.0	0.9469010650973707	-0.4073100339257255	0.0	0.9588676056866131	-0.3372747854076991	0.0	0.9778859819363488	-0.36967702776197525	0.0	0.9375969242737626	-0.42775799592881647	0.0	0.9074725537370946	-0.49866177546505863	0.0	0.9070193978807609	-0.5779715852002844	0.0	0.9455099633397746	-0.42716089086585135	0.0	0.9240445130533577	-0.4926179959040965	0.0	0.9274729082638938	-0.5617161413378656	0.0
